# xmcd CD database file
#
# Track frame offsets:
#	150
#	20790
#	42210
#	61232
#	82150
#	103015
#	122417
#	141667
#	162675
#	183707
#
# Disc length: 2732 seconds
#
# Revision: 0
# Processed by: cddbd v1.4PL0 Copyright (c) Steve Scherf et al.
# Submitted via: CDex 1.50
#
DISCID=950aaa0a
DTITLE=Alberto Barros - El Titan De La Salsa
DYEAR=1998
DGENRE=Salsa
TTITLE0=Maldita Duda
TTITLE1=Vampiro
TTITLE2=Confesion
TTITLE3=Perdi El Control
TTITLE4=Tu Indiferencia
TTITLE5=Fingiendo
TTITLE6=Imaginacion
TTITLE7=Sola Quedaras
TTITLE8=Reencarnado
TTITLE9=Dosis Pasional
EXTD=YEAR: 1998
EXTT0=
EXTT1=
EXTT2=
EXTT3=
EXTT4=
EXTT5=
EXTT6=
EXTT7=
EXTT8=
EXTT9=
PLAYORDER=
